<svg id="drive-thru" xmlns="http://www.w3.org/2000/svg" xmlns:xlink="http://www.w3.org/1999/xlink" width="71.272" height="71.232" viewBox="0 0 71.272 71.232">
  <defs>
    <linearGradient id="linear-gradient" x1="0.5" x2="0.5" y2="1" gradientUnits="objectBoundingBox">
      <stop offset="0" stop-color="#ff6f44"/>
      <stop offset="0.956" stop-color="#ff1f12"/>
      <stop offset="1" stop-color="#ff1b10"/>
    </linearGradient>
    <linearGradient id="linear-gradient-2" x1="0.5" x2="0.5" y2="2.065" gradientUnits="objectBoundingBox">
      <stop offset="0" stop-color="#2a2b2c"/>
      <stop offset="1" stop-color="#707172"/>
    </linearGradient>
    <linearGradient id="linear-gradient-3" x1="0.5" x2="0.5" y2="1" gradientUnits="objectBoundingBox">
      <stop offset="0" stop-color="#ff451b"/>
      <stop offset="1" stop-color="#6f200e"/>
    </linearGradient>
  </defs>
  <path id="Path_1" data-name="Path 1" d="M116.856,252.6v1.368a3.057,3.057,0,0,1-3.056,3.058h-8.987v-7.481H113.8A3.057,3.057,0,0,1,116.856,252.6Zm0,0" transform="translate(-90.222 -214.802)" fill="url(#linear-gradient)"/>
  <path id="Path_3" data-name="Path 3" d="M22.518,201.564H0V178.612a.721.721,0,0,1,.721-.721h11.6a8.456,8.456,0,0,1,8.414,7.536Zm0,0" transform="translate(-0.003 -153.128)"/>
  <path id="Path_4" data-name="Path 4" d="M18.177,228.32H0V208.973H12.327a4.134,4.134,0,0,1,4.113,3.684Zm0,0" transform="translate(-0.003 -179.883)" fill="#eafeff"/>
  <path id="Path_5" data-name="Path 5" d="M91.1,437.531v7.048a2.031,2.031,0,0,1-2.163,1.868H83.96A2.031,2.031,0,0,1,81.8,444.58v-7.048Zm0,0" transform="translate(-70.41 -376.625)" fill="url(#linear-gradient-2)"/>
  <path id="Path_7" data-name="Path 7" d="M26.836,326.383v4.389a4.37,4.37,0,0,1-4.37,4.37H.721A.721.721,0,0,1,0,334.421v-17.5H17.371a9.457,9.457,0,0,1,9.465,9.465Zm0,0" transform="translate(0 -272.802)" fill="url(#linear-gradient-3)"/>
  <path id="Path_9" data-name="Path 9" d="M86.665,353.26a4.709,4.709,0,1,1-4.71-4.709A4.709,4.709,0,0,1,86.665,353.26Zm0,0" transform="translate(-66.493 -300.031)" fill="#fff"/>
  <path id="Path_21" data-name="Path 21" d="M323.992,282.44c0,2.03.342,3.347,2.372,3.347l16.816.328v-7.349l-16.816.092C324.335,278.858,323.992,280.411,323.992,282.44Zm0,0" transform="translate(-278.891 -239.96)" fill="#707070"/>
  <path id="Path_22" data-name="Path 22" d="M446.9,2.164V69.069a2.163,2.163,0,0,1-2.164,2.163h-6.2a2.162,2.162,0,0,1-2.163-2.163V2.164A2.163,2.163,0,0,1,438.538,0h6.2A2.163,2.163,0,0,1,446.9,2.164Zm0,0" transform="translate(-375.63 0)" fill="#2c2c2c"/>
  <g id="chat" transform="translate(25.613 9.197)">
    <g id="Group_25" data-name="Group 25" transform="translate(0 0)">
      <g id="Group_24" data-name="Group 24">
        <path id="Path_90" data-name="Path 90" d="M20.856,0H2.5A2.5,2.5,0,0,0,0,2.5V15.852a2.5,2.5,0,0,0,2.5,2.5H5.464L5.01,22.434a.834.834,0,0,0,1.387.712l5.324-4.791h9.134a2.5,2.5,0,0,0,2.5-2.5V2.5A2.5,2.5,0,0,0,20.856,0Zm.834,15.85a.834.834,0,0,1-.834.834H11.4a.834.834,0,0,0-.558.214L6.911,20.44l.314-2.827a.834.834,0,0,0-.829-.927H2.5a.834.834,0,0,1-.834-.834V2.5A.834.834,0,0,1,2.5,1.67H20.856a.834.834,0,0,1,.834.834V15.852Z" transform="translate(0 -0.002)"/>
      </g>
    </g>
    <g id="Group_27" data-name="Group 27" transform="translate(3.337 4.171)">
      <g id="Group_26" data-name="Group 26">
        <path id="Path_91" data-name="Path 91" d="M84.116,85.335H69.1A.834.834,0,0,0,69.1,87H84.116a.834.834,0,0,0,0-1.668Z" transform="translate(-68.266 -85.335)"/>
      </g>
    </g>
    <g id="Group_29" data-name="Group 29" transform="translate(3.337 8.342)">
      <g id="Group_28" data-name="Group 28">
        <path id="Path_92" data-name="Path 92" d="M84.116,170.669H69.1a.834.834,0,1,0,0,1.668H84.116a.834.834,0,0,0,0-1.668Z" transform="translate(-68.266 -170.669)"/>
      </g>
    </g>
    <g id="Group_31" data-name="Group 31" transform="translate(3.337 12.513)">
      <g id="Group_30" data-name="Group 30">
        <path id="Path_93" data-name="Path 93" d="M84.116,256H69.1a.834.834,0,1,0,0,1.668H84.116a.834.834,0,0,0,0-1.668Z" transform="translate(-68.266 -256.002)"/>
      </g>
    </g>
  </g>
</svg>
