<?xml version="1.0" encoding="UTF-8" standalone="no"?>
<!DOCTYPE svg PUBLIC "-//W3C//DTD SVG 1.1//EN" "http://www.w3.org/Graphics/SVG/1.1/DTD/svg11.dtd">
<svg width="100%" height="100%" viewBox="0 0 745 560" version="1.1" xmlns="http://www.w3.org/2000/svg" xmlns:xlink="http://www.w3.org/1999/xlink" xml:space="preserve" xmlns:serif="http://www.serif.com/" style="fill-rule:evenodd;clip-rule:evenodd;stroke-linejoin:round;stroke-miterlimit:2;">
    <g transform="matrix(1,0,0,1,-906.126,-849.29)">
        <g id="logo">
            <g transform="matrix(2.02189,-3.64322,-3.64322,-2.02189,1639.59,927.227)">
                <g id="background">
                    <path d="M-89.333,-52.591C-131.368,-9.348 -161.574,45.08 -176.031,103.63L-89.333,151.746C-47.297,108.501 -17.091,54.073 -2.635,-4.475L-89.333,-52.591Z" style="fill:rgb(227,220,221);fill-rule:nonzero;"/>
                </g>
            </g>
            <g transform="matrix(4.16667,0,0,4.16667,715.226,-502.074)">
                <text x="70.055px" y="435.07px" style="font-family:'Raleway', sans-serif;font-size:18px;fill:rgb(175,129,60);">N<tspan x="82.853px 92.429px 100.079px 108.826px 118.06px 122.92px 131.668px 136.69px 145.438px 148.93px 160.18px 169.702px 174.795px 179.889px 189.339px " y="435.07px 435.07px 435.07px 435.07px 435.07px 435.07px 435.07px 435.07px 435.07px 435.07px 435.07px 435.07px 435.07px 435.07px 435.07px ">usantara Coffee</tspan></text>
            </g>
            <g id="padi" transform="matrix(1.26379,0,0,1.92204,-328.972,-1032.49)">
                <g transform="matrix(4.16667,0,0,4.16667,1055.16,1009.25)">
                    <path d="M0,14.295C-0.316,14.498 -5.403,7.967 5.468,-0.203C5.468,-0.203 8.382,8.903 0,14.295" style="fill:rgb(221,187,144);fill-rule:nonzero;"/>
                </g>
                <g transform="matrix(4.16667,0,0,4.16667,1053.7,1046.66)">
                    <path d="M0,5.213C0.138,5.563 -7.263,9.274 -13.147,-2.986C-13.147,-2.986 -3.646,-4.061 0,5.213" style="fill:rgb(175,129,59);fill-rule:nonzero;"/>
                </g>
                <g transform="matrix(4.16667,0,0,4.16667,1071.8,1049.58)">
                    <path d="M0,14.685C-0.298,14.914 -5.925,8.842 4.206,-0.229C4.206,-0.229 7.89,8.595 0,14.685" style="fill:rgb(175,129,59);fill-rule:nonzero;"/>
                </g>
                <g transform="matrix(4.16667,0,0,4.16667,1070.31,1092.7)">
                    <path d="M0,4.262C0.168,4.598 -6.888,8.929 -13.801,-2.781C-13.801,-2.781 -4.427,-4.667 0,4.262" style="fill:rgb(221,187,144);fill-rule:nonzero;"/>
                </g>
                <g transform="matrix(4.16667,0,0,4.16667,1098.41,1082.93)">
                    <path d="M0,15.151C-0.252,15.429 -6.882,10.475 1.443,-0.278C1.443,-0.278 6.66,7.737 0,15.151" style="fill:rgb(221,187,144);fill-rule:nonzero;"/>
                </g>
                <g transform="matrix(4.16667,0,0,4.16667,1096.89,1137.07)">
                    <path d="M0,2.149C0.227,2.448 -5.931,7.982 -14.846,-2.287C-14.846,-2.287 -5.966,-5.833 0,2.149" style="fill:rgb(175,129,59);fill-rule:nonzero;"/>
                </g>
                <g transform="matrix(3.3685,-2.45241,-2.45241,-3.3685,1167.29,1123.24)">
                    <path d="M-11.818,-3.729C-20.276,8.189 -15.283,24.3 -10.212,36.561C-9.792,37.577 -11.399,38.151 -11.818,37.137C-17.15,24.247 -21.984,7.657 -13.136,-4.814C-12.498,-5.712 -11.187,-4.619 -11.818,-3.729" style="fill:rgb(175,129,59);fill-rule:nonzero;"/>
                </g>
                <g transform="matrix(4.16667,0,0,4.16667,1046.13,980.487)">
                    <path d="M0,14.782C-0.166,15.126 -8.637,12.446 -3.637,-0.344C-3.637,-0.344 4.394,5.681 0,14.782" style="fill:rgb(175,129,59);fill-rule:nonzero;"/>
                </g>
                <g transform="matrix(4.13652,0.328977,-0.760914,4.13652,1509.97,1010.22)">
                    <path d="M0,14.295C0.316,14.498 5.403,7.967 -5.468,-0.203C-5.468,-0.203 -8.382,8.903 0,14.295" style="fill:rgb(221,187,144);fill-rule:nonzero;"/>
                </g>
                <g transform="matrix(4.13652,0.328977,-0.760914,4.13652,1504.58,1047.47)">
                    <path d="M0,5.213C-0.138,5.563 7.263,9.274 13.147,-2.986C13.147,-2.986 3.646,-4.061 0,5.213" style="fill:rgb(175,129,59);fill-rule:nonzero;"/>
                </g>
                <g transform="matrix(4.13652,0.328977,-0.760914,4.13652,1486.08,1048.94)">
                    <path d="M0,14.685C0.298,14.914 5.925,8.842 -4.206,-0.229C-4.206,-0.229 -7.89,8.595 0,14.685" style="fill:rgb(175,129,59);fill-rule:nonzero;"/>
                </g>
                <g transform="matrix(4.13652,0.328977,-0.760914,4.13652,1479.69,1091.87)">
                    <path d="M0,4.262C-0.168,4.598 6.888,8.929 13.801,-2.781C13.801,-2.781 4.427,-4.667 0,4.262" style="fill:rgb(221,187,144);fill-rule:nonzero;"/>
                </g>
                <g transform="matrix(4.13652,0.328977,-0.760914,4.13652,1453.57,1079.95)">
                    <path d="M0,15.151C0.252,15.429 6.882,10.475 -1.443,-0.278C-1.443,-0.278 -6.66,7.737 0,15.151" style="fill:rgb(221,187,144);fill-rule:nonzero;"/>
                </g>
                <g transform="matrix(4.13652,0.328977,-0.760914,4.13652,1445.2,1133.82)">
                    <path d="M0,2.149C-0.227,2.448 5.931,7.982 14.846,-2.287C14.846,-2.287 5.966,-5.833 0,2.149" style="fill:rgb(175,129,59);fill-rule:nonzero;"/>
                </g>
                <g transform="matrix(2.89627,2.70062,3.04982,-3.1505,1377.83,1114.53)">
                    <path d="M11.818,-3.729C20.276,8.189 15.283,24.3 10.212,36.561C9.792,37.577 11.399,38.151 11.818,37.137C17.15,24.247 21.984,7.657 13.136,-4.814C12.498,-5.712 11.187,-4.619 11.818,-3.729" style="fill:rgb(175,129,59);fill-rule:nonzero;"/>
                </g>
                <g transform="matrix(4.13652,0.328977,-0.760914,4.13652,1524.19,982.378)">
                    <path d="M0,14.782C0.166,15.126 8.637,12.446 3.637,-0.344C3.637,-0.344 -4.394,5.681 0,14.782" style="fill:rgb(175,129,59);fill-rule:nonzero;"/>
                </g>
            </g>
            <g transform="matrix(0.712196,-0.0038693,0.00453186,0.834149,1282.83,1085.13)">
                <g transform="matrix(1,0,0,1,-256,-256)">
                    <g id="Page-1">
                        <g id="_009---Beans" serif:id="009---Beans">
                            <g id="Shape" transform="matrix(0.990312,-0.13886,0.13886,0.990312,-33.5088,23.1785)">
                                <path d="M171.605,308.651C171.605,364.715 128.171,365.483 127.147,420.267C124.331,419.755 121.515,419.072 118.699,418.304C55.637,401.408 8.533,333.227 8.533,251.733C8.533,157.44 71.595,81.067 149.333,81.067C153.927,81.048 158.516,81.333 163.072,81.92C165.912,82.167 168.734,82.594 171.52,83.2C170.496,137.984 127.061,138.667 127.061,194.816C127.061,251.733 171.605,251.733 171.605,308.651Z" style="fill:rgb(138,94,61);fill-rule:nonzero;"/>
                            </g>
                            <g id="Shape1" serif:id="Shape" transform="matrix(0.990312,-0.13886,0.13886,0.990312,-33.5088,23.1785)">
                                <path d="M290.133,251.733C291.324,304.476 269.709,355.17 230.827,390.827C208.397,410.897 179.43,422.119 149.333,422.4C144.74,422.419 140.15,422.134 135.595,421.547C132.754,421.3 129.933,420.872 127.147,420.267C128.171,365.483 171.605,364.715 171.605,308.651C171.605,251.733 127.061,251.733 127.061,194.816C127.061,138.667 170.496,137.984 171.52,83.2C174.373,83.721 177.193,84.405 179.968,85.248C215.488,95.726 245.482,119.715 263.509,152.064C281.215,182.276 290.414,216.717 290.133,251.733Z" style="fill:rgb(96,55,20);fill-rule:nonzero;"/>
                            </g>
                            <g id="Shape2" serif:id="Shape" transform="matrix(0.999739,-0.0228639,0.0228639,0.999739,-5.98383,8.464)">
                                <path d="M481.877,162.475C442.368,200.448 411.221,170.325 371.541,210.005C331.264,250.197 362.752,281.685 322.475,321.877C290.901,353.365 264.277,336.384 278.955,417.109C275.797,416.256 272.725,415.232 269.739,414.123C255.389,408.935 242.177,401.025 230.827,390.827C269.709,355.17 291.324,304.476 290.133,251.733C290.414,216.717 281.215,182.276 263.509,152.064C329.045,98.645 416.853,94.464 467.712,145.237C470.952,148.445 473.974,151.866 476.757,155.477C478.549,157.696 480.256,160.085 481.877,162.475Z" style="fill:rgb(138,94,60);fill-rule:nonzero;"/>
                            </g>
                            <g id="Shape3" serif:id="Shape" transform="matrix(0.999739,-0.0228639,0.0228639,0.999739,-5.98383,8.464)">
                                <path d="M446.549,365.483C400.555,411.477 339.627,430.251 288,419.328C284.928,418.731 281.941,417.963 278.955,417.109C264.277,336.384 290.901,353.365 322.475,321.877C362.752,281.685 331.264,250.197 371.541,210.005C411.221,170.325 442.368,200.448 481.877,162.475C483.499,164.864 485.035,167.253 486.485,169.728C519.083,226.304 504.235,307.797 446.549,365.483Z" style="fill:rgb(96,55,20);fill-rule:nonzero;"/>
                            </g>
                        </g>
                    </g>
                </g>
            </g>
        </g>
    </g>
</svg>
