<svg xmlns="http://www.w3.org/2000/svg" width="72.581" height="72.581" viewBox="0 0 72.581 72.581">
  <g id="meeting-room" transform="translate(-1 -1)">
    <g id="Group_22" data-name="Group 22" transform="translate(2.171 2.171)">
      <g id="Group_1" data-name="Group 1" transform="translate(56.192 25.755)">
        <path id="Path_24" data-name="Path 24" d="M54.683,47.413V38.048a3.542,3.542,0,0,1,.468-1.756l-.468-.585V26.341a3.542,3.542,0,0,1,.468-1.756L54.683,24H50V54.437H60.3Z" transform="translate(-50 -24)" fill="#838f9b"/>
      </g>
      <g id="Group_2" data-name="Group 2" transform="translate(3.746 25.755)">
        <path id="Path_25" data-name="Path 25" d="M10.819,24l-.468.585a3.542,3.542,0,0,1,.468,1.756v9.365l-.468.585a3.542,3.542,0,0,1,.468,1.756v9.365L5.2,54.437H15.5V24Z" transform="translate(-5.2 -24)" fill="#838f9b"/>
      </g>
      <g id="Group_3" data-name="Group 3" transform="translate(56.192 56.192)">
        <path id="Path_26" data-name="Path 26" d="M60.3,50l3.126,3.91a2.284,2.284,0,0,1-1.721.773H50V50Z" transform="translate(-50 -50)" fill="#434a54"/>
      </g>
      <g id="Group_4" data-name="Group 4" transform="translate(0.62 56.192)">
        <path id="Path_27" data-name="Path 27" d="M2.53,53.91,5.656,50h10.3v4.683H4.251A2.284,2.284,0,0,1,2.53,53.91Z" transform="translate(-2.53 -50)" fill="#434a54"/>
      </g>
      <g id="Group_5" data-name="Group 5" transform="translate(60.874 36.29)">
        <path id="Path_28" data-name="Path 28" d="M63.365,37.683v17.56a2.222,2.222,0,0,1-.62,1.569L59.619,52.9,54,45.877V36.512A3.507,3.507,0,0,1,57.512,33h1.171A4.681,4.681,0,0,1,63.365,37.683Z" transform="translate(-54 -33)" fill="#656d78"/>
      </g>
      <g id="Group_6" data-name="Group 6" transform="translate(60.874 12.877)">
        <path id="Path_29" data-name="Path 29" d="M57.512,24.707a3.508,3.508,0,0,0-3.044,1.756L54,25.877V16.512A3.507,3.507,0,0,1,57.512,13h1.171a4.681,4.681,0,0,1,4.683,4.683V29.389a4.681,4.681,0,0,0-4.683-4.683Z" transform="translate(-54 -13)" fill="#656d78"/>
      </g>
      <g id="Group_7" data-name="Group 7" transform="translate(60.874 24.584)">
        <path id="Path_30" data-name="Path 30" d="M57.512,34.707a3.508,3.508,0,0,0-3.044,1.756L54,35.877V26.512A3.507,3.507,0,0,1,57.512,23h1.171a4.681,4.681,0,0,1,4.683,4.683V39.389a4.681,4.681,0,0,0-4.683-4.683Z" transform="translate(-54 -23)" fill="#656d78"/>
      </g>
      <g id="Group_8" data-name="Group 8" transform="translate(28.096 51.509)">
        <path id="Path_31" data-name="Path 31" d="M40.048,60.048v4.683H26V53.024A7.03,7.03,0,0,1,33.024,46a7.035,7.035,0,0,1,7.024,7.024Z" transform="translate(-26 -46)" fill="#656d78"/>
      </g>
      <g id="Group_9" data-name="Group 9" transform="translate(28.096)">
        <path id="Path_32" data-name="Path 32" d="M40.048,9.024v9.365H26V9.024A7.03,7.03,0,0,1,33.024,2a7.035,7.035,0,0,1,7.024,7.024Z" transform="translate(-26 -2)" fill="#656d78"/>
      </g>
      <g id="Group_10" data-name="Group 10" transform="translate(0 24.584)">
        <path id="Path_33" data-name="Path 33" d="M10.9,36.463a3.508,3.508,0,0,0-3.044-1.756H6.683A4.681,4.681,0,0,0,2,39.389V27.683A4.681,4.681,0,0,1,6.683,23H7.853a3.507,3.507,0,0,1,3.512,3.512v9.365Z" transform="translate(-2 -23)" fill="#656d78"/>
      </g>
      <g id="Group_11" data-name="Group 11" transform="translate(0 12.877)">
        <path id="Path_34" data-name="Path 34" d="M10.9,26.463a3.508,3.508,0,0,0-3.044-1.756H6.683A4.681,4.681,0,0,0,2,29.389V17.683A4.681,4.681,0,0,1,6.683,13H7.853a3.507,3.507,0,0,1,3.512,3.512v9.365Z" transform="translate(-2 -13)" fill="#656d78"/>
      </g>
      <g id="Group_12" data-name="Group 12" transform="translate(0 36.29)">
        <path id="Path_35" data-name="Path 35" d="M11.365,41.195v4.683L5.746,52.9,2.62,56.811A2.222,2.222,0,0,1,2,55.243V37.683A4.681,4.681,0,0,1,6.683,33H7.853a3.507,3.507,0,0,1,3.512,3.512Z" transform="translate(-2 -33)" fill="#656d78"/>
      </g>
      <g id="Group_13" data-name="Group 13" transform="translate(42.144 65.557)">
        <path id="Path_36" data-name="Path 36" d="M52.048,61.512a1.174,1.174,0,0,1-1.171,1.171H38V58H52.048Z" transform="translate(-38 -58)" fill="#b27946"/>
      </g>
      <g id="Group_14" data-name="Group 14" transform="translate(14.048 65.557)">
        <path id="Path_37" data-name="Path 37" d="M28.048,58v4.683H15.171A1.174,1.174,0,0,1,14,61.512V58Z" transform="translate(-14 -58)" fill="#b27946"/>
      </g>
      <g id="Group_15" data-name="Group 15" transform="translate(14.048 16.389)">
        <path id="Path_38" data-name="Path 38" d="M42.1,58.144a7.035,7.035,0,0,0-7.024-7.024,7.03,7.03,0,0,0-7.024,7.024v7.024H14v-48A1.174,1.174,0,0,1,15.171,16h39.8a1.174,1.174,0,0,1,1.171,1.171v48H42.1Z" transform="translate(-14 -16)" fill="#d3a06c"/>
      </g>
    </g>
    <g id="Group_23" data-name="Group 23" transform="translate(1 1)">
      <path id="Path_48" data-name="Path 48" d="M67.728,14.084c-2.582,0-5.853,1.893-5.853,4.476v8.195H59.533V19.731a2.344,2.344,0,0,0-2.341-2.341H45.485V9.195a8.195,8.195,0,0,0-16.389,0v8.195H17.389a2.344,2.344,0,0,0-2.341,2.341v7.024H12.707V18.56a4.687,4.687,0,0,0-4.683-4.683H6.853A5.86,5.86,0,0,0,1,19.731V60.7a3.516,3.516,0,0,0,3.512,3.512H15.048V71.24a2.344,2.344,0,0,0,2.341,2.341h39.8a2.344,2.344,0,0,0,2.341-2.341V64.216H70.069A3.516,3.516,0,0,0,73.581,60.7V19.731A7.436,7.436,0,0,0,71.435,15.6,6.653,6.653,0,0,0,67.728,14.084ZM3.341,19.731a3.516,3.516,0,0,1,3.512-3.512H8.024a2.344,2.344,0,0,1,2.341,2.341v7.675a4.634,4.634,0,0,0-2.341-.651H6.853a5.793,5.793,0,0,0-3.512,1.2Zm0,11.707a3.516,3.516,0,0,1,3.512-3.512H8.024a2.344,2.344,0,0,1,2.341,2.341v7.675a4.634,4.634,0,0,0-2.341-.651H6.853a5.793,5.793,0,0,0-3.512,1.2Zm0,28.27V43.144a3.516,3.516,0,0,1,3.512-3.512H8.024a2.344,2.344,0,0,1,2.341,2.341v8.954Zm11.707,2.167H4.608l1.873-2.341h8.567Zm0-4.683h-6.7L12.1,52.509h2.95Zm0-7.024H12.707V47.826h2.341Zm0-4.683H12.707V41.973A4.611,4.611,0,0,0,12.54,40.8h2.508Zm0-7.024H12.707V36.12h2.341Zm0-4.683H12.707V30.267A4.611,4.611,0,0,0,12.54,29.1h2.508ZM31.437,9.195a5.853,5.853,0,0,1,11.707,0v8.195H31.437ZM29.1,71.24H17.389V68.9H29.1Zm14.048,0H31.437V60.7a5.853,5.853,0,0,1,11.707,0Zm14.048,0H45.485V68.9H57.192Zm0-4.683H45.485V60.7a8.224,8.224,0,0,0-.094-1.171,7.424,7.424,0,0,0-2.248-4.553c-2.025-1.756-3.561-2.471-5.853-2.471a8.163,8.163,0,0,0-5.853,2.471,11.557,11.557,0,0,0-1.524,2.211,8.559,8.559,0,0,0-.724,2.341A8.225,8.225,0,0,0,29.1,60.7v5.853H17.389V19.731h39.8ZM59.533,29.1h2.508a4.611,4.611,0,0,0-.166,1.171v3.512H59.533Zm0,7.024h2.341v2.341H59.533Zm0,4.683h2.508a4.611,4.611,0,0,0-.166,1.171v3.512H59.533Zm0,7.024h2.341v2.341H59.533Zm0,4.683h2.95l3.745,4.683h-6.7Zm0,9.365V59.533H68.1l1.873,2.341ZM71.24,59.707l-7.024-8.78V41.973a2.344,2.344,0,0,1,2.341-2.341h1.171a3.516,3.516,0,0,1,3.512,3.512Zm0-21.216a5.793,5.793,0,0,0-3.512-1.2H66.557a4.635,4.635,0,0,0-2.341.651V30.267a2.344,2.344,0,0,1,2.341-2.341h1.171a3.516,3.516,0,0,1,3.512,3.512Zm0-11.707a5.793,5.793,0,0,0-3.512-1.2H66.557a4.634,4.634,0,0,0-2.341.651V18.56a2.344,2.344,0,0,1,2.341-2.341h1.171a3.516,3.516,0,0,1,3.512,3.512Z" transform="translate(-1 -1)"/>
    </g>
  </g>
</svg>
